<?xml version="1.0" encoding="UTF-8"?>
<svg version="1.1" xmlns="http://www.w3.org/2000/svg" width="16" height="16">
<path d="M0 0 C0 5.28 0 10.56 0 16 C-5.28 16 -10.56 16 -16 16 C-16 11.54610667 -15.51059728 9.0597302 -14 5 C-13.01 5 -12.02 5 -11 5 C-10.67 3.68 -10.34 2.36 -10 1 C-6.46315341 0.19157792 -3.72159473 0 0 0 Z " fill="#199F59" transform="translate(16,0)"/>
<path d="M0 0 C1.65 0 3.3 0 5 0 C5 5.28 5 10.56 5 16 C3.35 15.67 1.7 15.34 0 15 C0 10.05 0 5.1 0 0 Z " fill="#4C7CDA" transform="translate(11,0)"/>
<path d="M0 0 C3.63 0 7.26 0 11 0 C11.33 1.65 11.66 3.3 12 5 C8.04 5 4.08 5 0 5 C0 3.35 0 1.7 0 0 Z " fill="#E34736" transform="translate(0,11)"/>
<path d="M0 0 C1.65 0.33 3.3 0.66 5 1 C5 3.31 5 5.62 5 8 C3 7 1 6 -1 5 C-0.67 3.35 -0.34 1.7 0 0 Z " fill="#F8C007" transform="translate(6,1)"/>
<path d="M0 0 C0.99 0 1.98 0 3 0 C2.67 3.3 2.34 6.6 2 10 C1.67 10 1.34 10 1 10 C0.67 6.7 0.34 3.4 0 0 Z " fill="#488AF3" transform="translate(11,0)"/>
</svg>
